# xmcd
#
# Track frame offsets:
#	183
#	13383
#	30098
#	52688
#	72630
#	88393
#	105103
#	118688
#	133958
#	146088
#	159603
#	176558
#	195085
#	207510
#	230080
#	245618
#	263133
#	278700
#	289273
#	306203
#
# Disc length: 4222 seconds
#
# Revision: 2
# Processed by: cddbd v1.5.1PL0 Copyright (c) Steve Scherf et al.
# Submitted via: audiograbber 1.80
#
DISCID=28107c14
DTITLE=George Hug - Best of
DYEAR=1992
DGENRE=Country
TTITLE0=Old Continent
TTITLE1=My Home
TTITLE2=Now George Wake Up
TTITLE3=Joe's Honky Tonk
TTITLE4=My Love
TTITLE5=I Feel So Blue
TTITLE6=Where We Live
TTITLE7=Friendship
TTITLE8=If I Ever Need A Lady
TTITLE9=Rising AG
TTITLE10=Married
TTITLE11=Feeling
TTITLE12=Out In The Country
TTITLE13=Old Roy
TTITLE14=Moody
TTITLE15=Sam's Mother
TTITLE16=Our Time
TTITLE17=A Long Road
TTITLE18=Uncertain Future
TTITLE19=I Want To Go To Nashville
EXTD=ID3G: 2
EXTT0=
EXTT1=
EXTT2=
EXTT3=
EXTT4=
EXTT5=
EXTT6=
EXTT7=
EXTT8=
EXTT9=
EXTT10=
EXTT11=
EXTT12=
EXTT13=
EXTT14=
EXTT15=
EXTT16=
EXTT17=
EXTT18=
EXTT19=
PLAYORDER=
